PathFileType	4	(X/Y/Z)	subject01_synthetic_marker_data.trc
DataRate	CameraRate	NumFrames	NumMarkers	Units	OrigDataRate	OrigDataStartFrame	OrigNumFrames
60.000000	60.000000	10	31	m	60.000000	37	73
Frame#	Time		Sternum		R.Acromium		L.Acromium		Top.Head		R.ASIS		L.ASIS		V.Sacral		R.Thigh.Upper		R.Thigh.Front		R.Thigh.Rear		R.Shank.Upper		R.Shank.Front		R.Shank.Rear		R.Heel		R.Midfoot.Sup		R.Midfoot.Lat		R.Toe.Lat		R.Toe.Med		R.Toe.Tip		L.Thigh.Upper		L.Thigh.Front		L.Thigh.Rear		L.Shank.Upper		L.Shank.Front		L.Shank.Rear		L.Heel		L.Midfoot.Sup		L.Midfoot.Lat		L.Toe.Lat		L.Toe.Med		L.Toe.Tip
			X1	Y1	Z1	X2	Y2	Z2	X3	Y3	Z3	X4	Y4	Z4	X5	Y5	Z5	X6	Y6	Z6	X7	Y7	Z7	X8	Y8	Z8	X9	Y9	Z9	X10	Y10	Z10	X11	Y11	Z11	X12	Y12	Z12	X13	Y13	Z13	X14	Y14	Z14	X15	Y15	Z15	X16	Y16	Z16	X17	Y17	Z17	X18	Y18	Z18	X19	Y19	Z19	X20	Y20	Z20	X21	Y21	Z21	X22	Y22	Z22	X23	Y23	Z23	X24	Y24	Z24	X25	Y25	Z25	X26	Y26	Z26	X27	Y27	Z27	X28	Y28	Z28	X29	Y29	Z29	X30	Y30	Z30	X31	Y31	Z31

37	1	0.6604	1.3968	0.049408	0.56733	1.5344	0.22424	0.56468	1.5563	-0.11625	0.71167	1.7821	0.068053	0.61423	1.0831	0.176	0.61803	1.0748	-0.08613	0.41781	1.0693	0.053622	0.57659	0.74965	0.21871	0.64618	0.69338	0.12809	0.57075	0.62912	0.20429	0.49999	0.4594	0.18266	0.57427	0.41309	0.13486	0.50112	0.37218	0.18988	0.39547	0.070105	0.09495	0.54126	0.082372	0.072009	0.52742	0.053798	0.17658	0.61643	0.027868	0.19082	0.6266	0.049457	0.084267	0.685	0.046974	0.12046	0.62076	0.79253	-0.14952	0.7238	0.7883	-0.095677	0.65882	0.68981	-0.14004	0.66376	0.49331	-0.14118	0.68275	0.42207	-0.095487	0.62389	0.46808	-0.14652	0.40329	0.21963	-0.044636	0.55531	0.13483	-0.032636	0.52277	0.13002	-0.12692	0.56185	0.075716	-0.13713	0.5947	0.081714	-0.039238	0.63251	0.052829	-0.067589
38	1.017	0.65884	1.3964	0.049388	0.56627	1.5342	0.22423	0.56306	1.5558	-0.11629	0.7107	1.7816	0.067498	0.6117	1.0831	0.17719	0.61668	1.0747	-0.08492	0.41585	1.069	0.053936	0.56883	0.7482	0.21913	0.63707	0.6904	0.12845	0.56002	0.62788	0.20448	0.48565	0.45958	0.1825	0.55945	0.41247	0.13474	0.48576	0.37234	0.18963	0.37695	0.071093	0.094192	0.52286	0.082645	0.071607	0.50862	0.054164	0.17615	0.59747	0.027805	0.19062	0.60801	0.049317	0.084083	0.66631	0.046559	0.12042	0.62143	0.79339	-0.14849	0.72465	0.79068	-0.094882	0.66089	0.69121	-0.13884	0.67188	0.49259	-0.13984	0.69707	0.42309	-0.094477	0.63435	0.464	-0.14525	0.43632	0.1965	-0.044206	0.59548	0.12588	-0.032863	0.56335	0.11864	-0.12713	0.60721	0.068188	-0.1377	0.63954	0.07663	-0.03981	0.67979	0.051479	-0.068368
39	1.033	0.65739	1.3954	0.049487	0.56539	1.5336	0.2244	0.56163	1.555	-0.11612	0.71003	1.7806	0.067276	0.60928	1.083	0.17832	0.61516	1.0738	-0.083743	0.41385	1.0685	0.054444	0.56063	0.74666	0.21986	0.62747	0.6873	0.12915	0.54869	0.62665	0.20492	0.47064	0.45988	0.18246	0.54405	0.41209	0.13478	0.46986	0.37263	0.18947	0.35835	0.072227	0.093353	0.50438	0.083073	0.071218	0.48969	0.054632	0.1757	0.57836	0.027835	0.19044	0.58933	0.049326	0.083943	0.6475	0.046273	0.12045	0.62039	0.79323	-0.14784	0.7242	0.79171	-0.09534	0.66098	0.69149	-0.13833	0.67801	0.49085	-0.13936	0.70997	0.42375	-0.09465	0.64324	0.45893	-0.14459	0.47183	0.17379	-0.043284	0.6369	0.11805	-0.033835	0.60466	0.10834	-0.12784	0.65285	0.06218	-0.1391	0.68524	0.073081	-0.041476	0.72734	0.051873	-0.070552
40	1.05	0.65613	1.3939	0.049368	0.56436	1.5326	0.224	0.56108	1.5535	-0.11656	0.70997	1.7789	0.066737	0.60689	1.0831	0.17886	0.61347	1.0725	-0.083134	0.41183	1.0674	0.054562	0.55271	0.74524	0.22043	0.61813	0.68434	0.12971	0.53768	0.62561	0.20524	0.45598	0.46046	0.18237	0.52897	0.41192	0.13479	0.45423	0.37323	0.18929	0.33977	0.073776	0.092612	0.48593	0.08373	0.070918	0.47075	0.055386	0.17536	0.55921	0.028051	0.19036	0.57064	0.049467	0.083902	0.62868	0.046062	0.12059	0.61808	0.79195	-0.14764	0.72276	0.79132	-0.096891	0.65943	0.6905	-0.13833	0.68236	0.48801	-0.13926	0.72141	0.42412	-0.095484	0.65077	0.4529	-0.14414	0.50952	0.15245	-0.042025	0.67911	0.11198	-0.035332	0.64644	0.099673	-0.12888	0.69846	0.058148	-0.14109	0.73123	0.071647	-0.04391	0.77463	0.054467	-0.073718
41	1.067	0.65405	1.3925	0.048985	0.56237	1.531	0.22385	0.55876	1.5522	-0.11668	0.7077	1.7776	0.066714	0.6041	1.0826	0.17945	0.61221	1.0694	-0.082391	0.40974	1.0661	0.054141	0.5445	0.74366	0.22118	0.60857	0.6814	0.13041	0.52667	0.62444	0.20573	0.44161	0.46092	0.18245	0.5141	0.41159	0.13494	0.43883	0.3737	0.18927	0.32118	0.075296	0.092	0.46745	0.084359	0.07069	0.45183	0.056107	0.17509	0.54008	0.028232	0.19032	0.55192	0.04958	0.083895	0.60984	0.04582	0.12073	0.61481	0.78919	-0.14714	0.72048	0.78931	-0.098478	0.65675	0.68797	-0.13797	0.68561	0.484	-0.13872	0.73165	0.42408	-0.096147	0.65756	0.44596	-0.14323	0.54871	0.13322	-0.040556	0.72136	0.1082	-0.037123	0.6882	0.09323	-0.13011	0.74352	0.056599	-0.14343	0.77673	0.072755	-0.046818	0.82095	0.059635	-0.077483
42	1.083	0.65311	1.3903	0.048083	0.56129	1.5294	0.22238	0.55864	1.5499	-0.1182	0.70762	1.7753	0.065066	0.60181	1.0815	0.17955	0.6112	1.0667	-0.082156	0.40806	1.0644	0.053393	0.5368	0.7417	0.22128	0.59914	0.67798	0.13033	0.51597	0.62299	0.20572	0.42736	0.46122	0.18243	0.49921	0.41105	0.13481	0.42356	0.37404	0.18922	0.30244	0.076599	0.091954	0.44876	0.08481	0.070628	0.43298	0.056753	0.17506	0.52108	0.028393	0.19032	0.53303	0.049566	0.083864	0.59093	0.045515	0.1207	0.61116	0.78562	-0.14671	0.71773	0.78612	-0.10006	0.65318	0.68445	-0.13732	0.68759	0.47931	-0.13751	0.74026	0.42414	-0.096239	0.66342	0.43865	-0.14174	0.58855	0.11707	-0.039196	0.76277	0.10739	-0.038834	0.72943	0.089657	-0.13127	0.78753	0.058071	-0.14566	0.82087	0.076983	-0.049587	0.86553	0.067856	-0.081052
43	1.1	0.65195	1.3882	0.047303	0.56006	1.5272	0.22159	0.55745	1.5477	-0.119	0.70634	1.7731	0.064286	0.59993	1.0802	0.17975	0.6107	1.0629	-0.081751	0.40681	1.0625	0.052704	0.529	0.73966	0.2217	0.58955	0.67446	0.13058	0.50505	0.62155	0.20598	0.41283	0.4617	0.18256	0.48407	0.41074	0.13486	0.40804	0.37456	0.1893	0.2836	0.078215	0.091883	0.42998	0.085432	0.07059	0.41398	0.057521	0.17503	0.50188	0.028574	0.19032	0.514	0.049626	0.083861	0.57186	0.045198	0.12072	0.60834	0.78131	-0.14532	0.71554	0.78209	-0.10013	0.65034	0.68017	-0.13551	0.69009	0.47436	-0.13512	0.74851	0.42431	-0.095059	0.66993	0.43157	-0.1393	0.628	0.10451	-0.038242	0.80239	0.10983	-0.040154	0.76948	0.089573	-0.13223	0.82989	0.063135	-0.14749	0.86274	0.084551	-0.051776	0.9076	0.079387	-0.083849
44	1.117	0.65127	1.3855	0.047016	0.5585	1.5249	0.22049	0.558	1.5448	-0.12015	0.70606	1.7704	0.063641	0.59817	1.0783	0.1797	0.61011	1.059	-0.081609	0.4056	1.0603	0.051882	0.52196	0.73734	0.22175	0.58063	0.67087	0.13033	0.49515	0.61987	0.20595	0.39947	0.46195	0.18262	0.46982	0.41002	0.13466	0.39345	0.37489	0.1893	0.26462	0.079872	0.091949	0.41101	0.086074	0.070411	0.39499	0.058352	0.1749	0.48272	0.028818	0.19006	0.4948	0.049705	0.083572	0.5527	0.044911	0.12034	0.60616	0.77672	-0.14346	0.71345	0.77739	-0.098487	0.64771	0.67547	-0.13287	0.69221	0.46932	-0.13182	0.75532	0.4247	-0.092463	0.67618	0.42484	-0.13632	0.66575	0.095151	-0.038272	0.83905	0.11533	-0.040513	0.80775	0.092922	-0.13265	0.87015	0.071827	-0.1482	0.90131	0.095362	-0.052424	0.94636	0.094244	-0.084623
45	1.133	0.65024	1.3824	0.045162	0.55745	1.5222	0.21839	0.55728	1.5417	-0.12226	0.70541	1.7673	0.061408	0.59552	1.0764	0.17942	0.60981	1.0546	-0.081573	0.40408	1.0576	0.050009	0.51497	0.73498	0.2215	0.57193	0.66739	0.12981	0.48567	0.6181	0.20568	0.38683	0.46208	0.18255	0.45616	0.40903	0.13433	0.3794	0.37512	0.1892	0.24565	0.081608	0.092015	0.39205	0.086725	0.070226	0.37601	0.059257	0.17477	0.46354	0.029109	0.18984	0.4756	0.049769	0.083295	0.53352	0.044606	0.11997	0.60546	0.77209	-0.14159	0.71227	0.77247	-0.095468	0.64642	0.6707	-0.13009	0.69512	0.46461	-0.12851	0.76162	0.42524	-0.089126	0.6831	0.41895	-0.13363	0.70082	0.088849	-0.039403	0.87186	0.12336	-0.039829	0.84331	0.099411	-0.13247	0.90737	0.083733	-0.14765	0.93566	0.10876	-0.051356	0.98092	0.11172	-0.083143
46	1.15	0.64942	1.3792	0.043744	0.55644	1.519	0.21685	0.55671	1.5385	-0.12381	0.70464	1.7641	0.060037	0.59403	1.0745	0.17863	0.6096	1.0506	-0.082099	0.40324	1.0545	0.048469	0.50899	0.73259	0.22109	0.56411	0.6638	0.12916	0.47702	0.61641	0.20529	0.37484	0.46247	0.1824	0.4431	0.40826	0.13394	0.36595	0.37565	0.18905	0.22709	0.083866	0.092115	0.37349	0.087644	0.070063	0.35738	0.06046	0.17468	0.44467	0.029551	0.18962	0.45673	0.04996	0.083036	0.51466	0.044328	0.11962	0.60589	0.76761	-0.13976	0.71169	0.7671	-0.091378	0.64574	0.66588	-0.12738	0.69769	0.46011	-0.1255	0.76643	0.42565	-0.085385	0.68948	0.41372	-0.13145	0.73199	0.08488	-0.041229	0.89974	0.13277	-0.037911	0.87487	0.10796	-0.13138	0.94024	0.097594	-0.14552	0.96469	0.1234	-0.048388	1.0102	0.13038	-0.079254
